name GIL11_free1.mot
datacolumns 153
datarows 4
range 0.85833329 0.88333327
endheader

                time	           pelvis_tx	           pelvis_ty	           pelvis_tz	         pelvis_tilt	         pelvis_list	     pelvis_rotation	       hip_flexion_r	     hip_adduction_r	      hip_rotation_r	        knee_angle_r	       ankle_angle_r	    subtalar_angle_r	         mtp_angle_r	       hip_flexion_l	     hip_adduction_l	      hip_rotation_l	        knee_angle_l	       ankle_angle_l	    subtalar_angle_l	         mtp_angle_l	    lumbar_extension	      lumbar_bending	     lumbar_rotation	     ground_force_vx	     ground_force_vy	     ground_force_vz	     ground_force_px	     ground_force_py	     ground_force_pz	     ground_force_vx	     ground_force_vy	     ground_force_vz	     ground_force_px	     ground_force_py	     ground_force_pz	     ground_torque_x	     ground_torque_y	     ground_torque_z	     ground_torque_x	     ground_torque_y	     ground_torque_z	    ground_marker_px	    ground_marker_py	    ground_marker_pz	    ground_marker_px	    ground_marker_py	    ground_marker_pz	    ground_marker_px	    ground_marker_py	    ground_marker_pz	    ground_marker_px	    ground_marker_py	    ground_marker_pz	    ground_marker_px	    ground_marker_py	    ground_marker_pz	    ground_marker_px	    ground_marker_py	    ground_marker_pz	    ground_marker_px	    ground_marker_py	    ground_marker_pz	    ground_marker_px	    ground_marker_py	    ground_marker_pz	    ground_marker_px	    ground_marker_py	    ground_marker_pz	    ground_marker_px	    ground_marker_py	    ground_marker_pz	    ground_marker_px	    ground_marker_py	    ground_marker_pz	    ground_marker_px	    ground_marker_py	    ground_marker_pz	    ground_marker_px	    ground_marker_py	    ground_marker_pz	    ground_marker_px	    ground_marker_py	    ground_marker_pz	    ground_marker_px	    ground_marker_py	    ground_marker_pz	    ground_marker_px	    ground_marker_py	    ground_marker_pz	    ground_marker_px	    ground_marker_py	    ground_marker_pz	    ground_marker_px	    ground_marker_py	    ground_marker_pz	    ground_marker_px	    ground_marker_py	    ground_marker_pz	    ground_marker_px	    ground_marker_py	    ground_marker_pz	    ground_marker_px	    ground_marker_py	    ground_marker_pz	    ground_marker_px	    ground_marker_py	    ground_marker_pz	    ground_marker_px	    ground_marker_py	    ground_marker_pz	    ground_marker_px	    ground_marker_py	    ground_marker_pz	    ground_marker_px	    ground_marker_py	    ground_marker_pz	    ground_marker_px	    ground_marker_py	    ground_marker_pz	    ground_marker_px	    ground_marker_py	    ground_marker_pz	    ground_marker_px	    ground_marker_py	    ground_marker_pz	    ground_marker_px	    ground_marker_py	    ground_marker_pz	    ground_marker_px	    ground_marker_py	    ground_marker_pz	    ground_marker_px	    ground_marker_py	    ground_marker_pz	    ground_marker_px	    ground_marker_py	    ground_marker_pz	    ground_marker_px	    ground_marker_py	    ground_marker_pz	    ground_marker_px	    ground_marker_py	    ground_marker_pz	    ground_marker_px	    ground_marker_py	    ground_marker_pz	    ground_marker_px	    ground_marker_py	    ground_marker_pz	    ground_marker_px	    ground_marker_py	    ground_marker_pz	
          0.85833329	          1.45223093	          0.88962901	         -0.26736301	         -4.70385551	          2.22244358	          4.91372585	          5.18752480	         -0.04769670	          4.51954126	         -9.38418007	          7.82470989	          0.00000000	          0.00000000	         21.86333847	          0.49239948	         20.96220207	        -38.90867233	         -0.19904937	          0.00000000	          0.00000000	         -0.73666036	         -6.47096395	          3.26522207	         -5.75043487	        483.11212053	        -31.70566785	          1.39257813	          0.00000000	         -0.20520425	          0.00000000	          0.00000000	          0.00000000	          0.92895947	          0.00000000	         -0.35248920	          0.00000000	          2.38939404	          0.00000000	          0.00000000	          0.00000000	          0.00000000	          1.36893058	          0.82438815	         -0.26440224	          1.36943257	          0.81139266	         -0.18994577	          1.35366094	          0.82063121	         -0.34097129	          1.37240160	          0.43861589	         -0.21291982	          1.47145534	          0.43928695	         -0.36951539	          1.31330013	          0.06572577	         -0.23407613	          1.32583284	          0.12245272	         -0.34486604	          1.45223093	          0.88962901	         -0.26736301	          1.46048880	          0.88245493	         -0.15146494	          1.44397306	          0.89680308	         -0.38326108	          1.26219881	          0.94891024	         -0.22197783	          1.25413382	          0.94532478	         -0.27583036	          1.38106143	          0.43515682	         -0.15567437	          1.48752940	          0.44836774	         -0.42449865	          1.36370718	          0.44715783	         -0.26157731	          1.49886787	          0.45360270	         -0.30531949	          1.29876876	          0.06591455	         -0.19680943	          1.31164849	          0.12607613	         -0.38209060	          1.32843220	          0.07354221	         -0.26554766	          1.33946705	          0.12949748	         -0.32034984	          1.34312713	          1.38884437	         -0.25262567	          1.47433209	          1.33223903	         -0.22190604	          1.45988047	          1.32738078	         -0.32639366	          1.46384299	          1.32627892	         -0.27286392	          1.50532019	          1.25824654	         -0.27943262	          1.52981114	          0.57831335	         -0.23309845	          1.50357628	          0.59802878	         -0.49992687	          1.47386968	          0.62675482	         -0.16696362	          1.42647076	          0.61998552	         -0.44543725	          1.45854247	          0.53989452	         -0.16988797	          1.46177721	          0.54051936	         -0.43719071	          1.30149579	          0.13990194	         -0.12112622	          1.46390140	          0.19606340	         -0.34889451	          1.30710256	          0.15026930	         -0.16369474	          1.42546511	          0.21136510	         -0.35531017	          1.40799904	          0.03777156	         -0.20529261	          1.40802312	          0.05999672	         -0.36765799	
          0.86666662	          1.46105838	          0.88897902	         -0.26720995	         -4.79231262	          2.36952448	          4.80086899	          4.37974358	         -0.05916273	          4.24521971	         -8.96441555	          8.09392643	          0.00000000	          0.00000000	         22.57171249	          0.85765111	         20.62932205	        -37.16790771	          0.58677733	          0.00000000	          0.00000000	         -0.77023441	         -6.40440035	          3.56865764	         -2.59209513	        490.91929007	        -32.31217705	          1.39457202	          0.00000000	         -0.20507091	          0.00000000	          0.00000000	          0.00000000	          0.93025177	          0.00000000	         -0.35203113	          0.00000000	          2.43456055	          0.00000000	          0.00000000	          0.00000000	          0.00000000	          1.38296580	          0.82910264	         -0.26540348	          1.37793052	          0.81073117	         -0.19015837	          1.36257041	          0.82028067	         -0.34120697	          1.37511182	          0.43854508	         -0.21336123	          1.48467088	          0.44024053	         -0.36784354	          1.31305468	          0.06608696	         -0.23456997	          1.35223055	          0.11653309	         -0.34438559	          1.46105838	          0.88897902	         -0.26720995	          1.46900558	          0.88156778	         -0.15122777	          1.45311129	          0.89639026	         -0.38319212	          1.27086854	          0.94859636	         -0.22226611	          1.26285756	          0.94501567	         -0.27626488	          1.38334155	          0.43491068	         -0.15606323	          1.50063133	          0.44922552	         -0.42287561	          1.36774504	          0.44748360	         -0.26238173	          1.51126444	          0.45513570	         -0.30410895	          1.29853594	          0.06638370	         -0.19729911	          1.33777678	          0.11975397	         -0.38154352	          1.32736576	          0.07417563	         -0.26638812	          1.36567497	          0.12415477	         -0.32019675	          1.35243869	          1.38858819	         -0.25250813	          1.48385167	          1.33147597	         -0.22130106	          1.46905828	          1.32699585	         -0.32619029	          1.47315013	          1.32575440	         -0.27257535	          1.51444840	          1.25758135	         -0.27936921	          1.53539824	          0.57597375	         -0.23248589	          1.51506615	          0.59826362	         -0.49904600	          1.47949672	          0.62553155	         -0.16658373	          1.43790042	          0.62035948	         -0.44530270	          1.46303201	          0.53876549	         -0.16977878	          1.47392416	          0.54093671	         -0.43651596	          1.30180776	          0.14005674	         -0.12155263	          1.48708975	          0.19615249	         -0.34847978	          1.30705404	          0.15042903	         -0.16413248	          1.44772720	          0.20996732	         -0.35481128	          1.40801895	          0.03771086	         -0.20534332	          1.43745780	          0.05899933	         -0.36828801	
          0.87499994	          1.46986485	          0.88811946	         -0.26711228	         -4.88732719	          2.48237109	          4.70097542	          3.59605694	         -0.04199754	          3.97135735	         -8.57678604	          8.42152882	          0.00000000	          0.00000000	         23.27168274	          1.19589961	         20.21831512	        -35.43012238	          1.28429687	          0.00000000	          0.00000000	         -0.69345999	         -6.16253901	          3.87616396	          0.53117327	        499.24470494	        -32.95976476	          1.39658960	          0.00000000	         -0.20496451	          0.00000000	          0.00000000	          0.00000000	          0.93174591	          0.00000000	         -0.35166153	          0.00000000	          2.47276245	          0.00000000	          0.00000000	          0.00000000	          0.00000000	          1.39315259	          0.83025062	         -0.26601586	          1.38642931	          0.80990970	         -0.19035508	          1.37142396	          0.81969404	         -0.34142432	          1.37793589	          0.43842992	         -0.21381131	          1.49766815	          0.44100603	         -0.36615789	          1.31278801	          0.06645340	         -0.23515314	          1.37885773	          0.11086390	         -0.34404892	          1.46986485	          0.88811946	         -0.26711228	          1.47754824	          0.88052583	         -0.15098998	          1.46218145	          0.89571309	         -0.38323459	          1.27949083	          0.94810480	         -0.22252430	          1.27154279	          0.94454890	         -0.27669153	          1.38575602	          0.43463024	         -0.15646666	          1.51342297	          0.44985792	         -0.42127079	          1.37235320	          0.44788846	         -0.26368797	          1.52154171	          0.45521224	         -0.30309108	          1.29826915	          0.06685790	         -0.19788328	          1.36418366	          0.11365984	         -0.38115489	          1.32669675	          0.07485953	         -0.26707450	          1.39165950	          0.11837491	         -0.31992224	          1.36163950	          1.38797820	         -0.25240210	          1.49327409	          1.33047366	         -0.22065029	          1.47815061	          1.32663655	         -0.32585490	          1.48252344	          1.32509911	         -0.27231961	          1.52356815	          1.25687122	         -0.27940598	          1.54104137	          0.57367611	         -0.23192528	          1.52612579	          0.59818858	         -0.49821597	          1.48460698	          0.62418032	         -0.16571377	          1.44826353	          0.62026775	         -0.44484991	          1.46758115	          0.53800380	         -0.16962835	          1.48475564	          0.54057163	         -0.43574873	          1.30210161	          0.14026651	         -0.12209190	          1.51025379	          0.19645880	         -0.34805635	          1.30736375	          0.15069647	         -0.16434489	          1.47065067	          0.20921595	         -0.35400650	          1.40809512	          0.03769100	         -0.20541650	          1.46690214	          0.05823566	         -0.36919862	
          0.88333327	          1.47865248	          0.88707429	         -0.26706472	         -4.99142456	          2.56230998	          4.61902666	          2.84843254	          0.00206758	          3.69448018	         -8.22244835	          8.80051327	          0.00000000	          0.00000000	         23.95913696	          1.50809276	         19.74435234	        -33.68309402	          1.86432695	          0.00000000	          0.00000000	         -0.50957602	         -6.20948887	          3.63364697	          3.55583022	        508.19995891	        -33.45448182	          1.39865234	          0.00000000	         -0.20490251	          0.00000000	          0.00000000	          0.00000000	          0.93346729	          0.00000000	         -0.35139410	          0.00000000	          2.51292920	          0.00000000	          0.00000000	          0.00000000	          0.00000000	          1.39975476	          0.82773268	         -0.26631975	          1.39493406	          0.80895132	         -0.19052754	          1.38021529	          0.81890225	         -0.34161407	          1.38094306	          0.43826649	         -0.21426669	          1.51040804	          0.44157749	         -0.36447984	          1.31262946	          0.06679312	         -0.23579578	          1.40566945	          0.10550306	         -0.34383285	          1.47865248	          0.88707429	         -0.26706472	          1.48612654	          0.87934840	         -0.15076475	          1.47117841	          0.89480019	         -0.38336471	          1.28808725	          0.94746006	         -0.22275439	          1.28026009	          0.94393593	         -0.27707118	          1.38837385	          0.43431097	         -0.15688083	          1.52587533	          0.45026073	         -0.41970083	          1.37706959	          0.44748828	         -0.26367691	          1.53268015	          0.45475709	         -0.30208519	          1.29804671	          0.06731639	         -0.19855240	          1.39081740	          0.10785455	         -0.38089883	          1.32607210	          0.07523450	         -0.26787129	          1.41887796	          0.11273867	         -0.31984076	          1.37112892	          1.38690424	         -0.25215313	          1.50236952	          1.32981086	         -0.22051841	          1.48792422	          1.32595408	         -0.32561669	          1.49192524	          1.32428861	         -0.27208692	          1.53322756	          1.25629890	         -0.27899781	          1.54674983	          0.57140595	         -0.23140515	          1.53676498	          0.59781420	         -0.49745128	          1.49009371	          0.62318683	         -0.16515456	          1.45821965	          0.61904448	         -0.44375989	          1.47239661	          0.53677714	         -0.16914512	          1.49519253	          0.54014504	         -0.43473890	          1.30235600	          0.14056954	         -0.12276956	          1.53332794	          0.19700579	         -0.34763420	          1.30762017	          0.15093729	         -0.16494873	          1.49356675	          0.20776072	         -0.35341299	          1.40821660	          0.03772637	         -0.20550257	          1.49630451	          0.05771496	         -0.37031442	
